<svg xmlns="http://www.w3.org/2000/svg" width="1027.702" height="223.553" xmlns:v="https://vecta.io/nano"><path d="M318.964 73.271c4.817 4.492 8.496 9.863 11.035 16.113s3.809 13.022 3.809 20.312c0 7.227-1.254 14.048-3.76 20.459s-6.169 11.899-10.986 16.455c-5.144 4.883-11.279 8.628-18.408 11.23s-15.283 3.906-24.463 3.906c-7.943 0-15.251-1.139-21.924-3.418s-12.582-5.695-17.725-10.254c-4.948-4.36-8.854-9.748-11.719-16.162s-4.297-13.589-4.297-21.533c0-7.812 1.253-14.761 3.76-20.849s6.266-11.507 11.279-16.26c4.817-4.556 10.758-8.089 17.822-10.596s14.957-3.76 23.682-3.76c9.114 0 17.139 1.254 24.072 3.76s12.875 6.041 17.823 10.597zm-25 67.676c1.432-3.645 2.49-8.071 3.174-13.281s1.025-11.262 1.025-18.164c0-4.556-.326-9.765-.977-15.625s-1.628-10.481-2.93-13.867c-1.562-4.102-3.728-7.324-6.494-9.668s-6.267-3.516-10.498-3.516c-4.623 0-8.317 1.27-11.084 3.809s-4.899 5.827-6.396 9.863c-1.367 3.711-2.312 8.057-2.832 13.037s-.781 10.173-.781 15.576c0 7.098.228 12.974.684 17.627s1.562 9.326 3.32 14.014c1.497 4.038 3.646 7.227 6.445 9.57s6.348 3.516 10.645 3.516c3.906 0 7.259-1.089 10.059-3.271s5.012-5.387 6.64-9.62zm147.769 17.676h-61.035v-7.129l8.032-.83c2.153-.356 3.23-1.089 3.23-2.197 0-.52-.278-1.333-.83-2.441l-2.102-3.715c-1.239-2.023-3.375-5.221-6.408-9.594l-8.559-12.14-9.482 11.26-8.015 10.083c-.979 1.175-1.662 2.25-2.053 3.227s-.586 1.562-.586 1.758c0 1.499 1.059 2.637 3.177 3.418s4.645 1.172 7.579 1.172v7.129h-39.648v-7.129c5.279-1.105 9.499-2.863 12.66-5.273s5.297-4.263 6.404-5.566l12.079-12.705c3.292-3.369 7.71-8.096 13.252-14.179l-13.461-18.784-13.169-18.199c-1.769-2.344-3.929-4.15-6.481-5.42s-5.858-2.1-9.917-2.49V61.75h59.668v7.129c-2.143 0-4.253.131-6.331.391s-3.117.717-3.117 1.367c0 .522.162 1.172.488 1.953s.748 1.596 1.267 2.441c1.232 2.081 3.18 5.139 5.841 9.174l8.566 12.689 7.378-8.783c1.986-2.277 4.542-5.498 7.67-9.662 1.172-1.562 1.904-2.734 2.197-3.516s.439-1.27.439-1.465c0-1.106-.7-2.1-2.098-2.979s-4.146-1.416-8.238-1.611v-7.129h38.867v7.129c-3.19.522-6.283 1.596-9.277 3.223s-6.12 4.167-9.375 7.617l-11.067 11.568-11.454 12.152 12.97 18.463 14.63 20.414c1.758 2.476 3.727 4.492 5.908 6.055s5.647 2.605 10.4 3.125v7.128z"/><path d="M542.335 68.877c-2.93.456-5.778 1.562-8.545 3.32s-5.062 4.492-6.885 8.203l-17.285 37.841-19.727 43.408c-4.037 8.725-7.943 15.689-11.719 20.898s-7.324 9.213-10.645 12.012c-3.125 2.604-6.218 4.492-9.277 5.664s-6.152 1.758-9.277 1.758c-6.186 0-11.182-1.725-14.99-5.176s-5.713-7.324-5.713-11.621c0-1.822.211-3.516.635-5.078s1.316-3.189 2.684-4.883c1.041-1.432 2.65-2.652 4.831-3.662s4.636-1.514 7.369-1.514c3.644 0 7.124 1.27 10.442 3.809s6.766 6.055 10.346 10.547c2.147-2.154 4.799-5.369 7.954-9.645s5.481-8.666 6.979-13.17l-20.591-42.302-20.102-39.961c-1.628-3.125-3.809-5.55-6.543-7.275s-5.632-2.783-8.691-3.174v-7.129h59.766v7.129c-2.208.065-4.756.554-7.646 1.465s-4.335 2.084-4.335 3.516c0 .522.098 1.091.293 1.709s.553 1.512 1.073 2.681l9.414 18.944 14.194 28.388 10.284-23.808 8.238-19.622c.65-1.622 1.023-2.905 1.121-3.85s.146-1.578.146-1.904c0-1.172-.568-2.197-1.706-3.076s-2.485-1.644-4.045-2.295c-1.623-.65-3.183-1.138-4.677-1.465s-2.729-.552-3.703-.684v-7.129h40.332v7.131zm117.418 28.455c0 8.732-1.529 17.009-4.585 24.829s-7.122 14.597-12.193 20.331c-5.658 6.321-11.786 11.014-18.387 14.076s-13.381 4.594-20.339 4.594c-5.594 0-10.178-.685-13.754-2.052s-6.765-3.063-9.56-5.085l-5.701 25.592a60.01 60.01 0 0 0-.931 4.591c-.229 1.431-.342 2.571-.342 3.418 0 1.758.635 3.157 1.906 4.2s2.719 1.791 4.347 2.246c1.627.521 3.45.912 5.469 1.172s3.841.455 5.469.586l-1.367 6.152h-53.86l1.367-6.152c2.084-.131 4.037-.293 5.859-.488a31.52 31.52 0 0 0 5.176-.978c2.019-.586 3.629-1.679 4.834-3.272 1.204-1.598 2.066-3.57 2.588-5.915l20.384-89.914 1.465-7.477c.455-2.508.684-4.674.684-6.499 0-3.648-.57-6.091-1.709-7.331s-3.593-1.857-7.362-1.857c-1.431 0-3.251.278-5.461.83l-5.168 1.318 1.465-6.25c4.948-2.212 9.408-3.921 13.382-5.127s7.358-1.807 10.159-1.807c4.558 0 8.01 1.158 10.354 3.471s3.81 5.524 4.396 9.628h.781c4.426-4.104 9.162-7.494 14.206-10.166s10.074-4.008 15.087-4.008c9.894 0 17.592 3.374 23.093 10.118s8.248 15.821 8.248 27.226zm-30.461 40.373c3.317-5.344 5.871-11.422 7.66-18.234s2.684-14.029 2.684-21.655c0-3.455-.31-6.925-.928-10.413s-1.611-6.371-2.979-8.653c-1.432-2.542-3.385-4.514-5.857-5.915s-5.729-2.103-9.765-2.103c-2.993 0-6.297.913-9.91 2.737s-8.023 5.248-13.229 10.266l-12.465 55.436c.454 3.717 2.455 7.188 6.001 10.414s7.821 4.838 12.831 4.838c5.14 0 9.953-1.498 14.442-4.496s8.327-7.072 11.515-12.222zM709.285 8.916l-27.306 117.578-1.665 7.422c-.521 2.476-.782 4.492-.782 6.055 0 3.711.828 6.25 2.485 7.617s4.34 2.051 8.044 2.051c1.299 0 3.232-.161 5.8-.488s4.502-.715 5.802-1.172l-1.465 6.25c-5.859 2.344-10.368 4.004-13.525 4.98s-6.723 1.465-10.693 1.465c-5.209 0-9.164-1.352-11.865-4.055s-4.053-6.043-4.053-10.017a26.48 26.48 0 0 1 .439-4.69c.293-1.628.699-3.68 1.221-6.156l23.801-102.901.929-4.202c.162-.781.244-1.759.244-2.933 0-2.344-.392-4.152-1.176-5.423s-1.896-2.23-3.334-2.882c-1.374-.586-3.107-.978-5.2-1.173l-6.377-.684 1.37-5.957 36.327-2.148.979 1.463zm50.222 136.802h-.683l-5.121 4.448c-1.983 1.792-4.308 3.502-6.973 5.132-2.536 1.629-5.298 3.045-8.289 4.251s-6.242 1.808-9.753 1.808c-9.427 0-16.823-3.387-22.187-10.165s-8.046-16.03-8.046-27.762c0-8.081 1.495-15.933 4.489-23.558s7.123-14.467 12.394-20.527c5.009-5.799 10.961-10.474 17.858-14.026s13.987-5.328 21.275-5.328c4.617 0 9.025.62 13.222 1.857s7.498 2.64 9.906 4.202l17.923-4.594 1.175 1.466-14.877 63.059c-.522 2.02-1.06 4.481-1.611 7.383s-.83 5.035-.83 6.402c0 3.715.781 6.225 2.345 7.528s4.205 1.954 7.923 1.954c1.238 0 3.001-.195 5.284-.586s4.043-.812 5.282-1.27l-1.468 6.25-13.113 5.078c-2.87 1.041-6.36 1.562-10.47 1.562-4.697 0-8.416-1.368-11.155-4.104s-4.239-6.223-4.5-10.46zm14.073-61.782c0-2.15-.229-4.203-.684-6.159s-1.401-3.781-2.834-5.477c-1.303-1.629-3.095-2.933-5.374-3.911s-5.146-1.466-8.597-1.466c-4.757 0-9.382 1.565-13.875 4.693s-8.533 7.332-12.114 12.612c-3.387 4.955-6.156 10.951-8.305 17.99s-3.225 14.177-3.225 21.412c0 3.977.228 7.496.682 10.561s1.332 5.865 2.633 8.407c1.234 2.478 3.021 4.401 5.36 5.77s5.296 2.052 8.87 2.052c3.638 0 7.455-1.025 11.451-3.078s8.496-5.656 13.501-10.805l12.511-52.601zm128.798 63.358l-1.47 6.25c-5.881 2.344-10.455 4.053-13.722 5.127s-6.566 1.611-9.897 1.611c-5.228 0-9.147-1.354-11.76-4.057s-3.918-6.045-3.918-10.021c0-1.435.13-3.014.391-4.741s.685-3.764 1.276-6.111l9.647-36.465c.722-2.801 1.294-5.343 1.718-7.625s.635-4.106.635-5.477c0-4.365-1.036-7.82-3.105-10.362s-5.139-3.813-9.207-3.813c-3.939 0-8.364 1.305-13.271 3.914s-9.526 6.39-13.853 11.346l-16.687 71.751h-18.242l14.646-63.353 1.416-6.794c.618-2.965.928-5.361.928-7.186 0-3.65-.621-6.093-1.86-7.332s-3.725-1.858-7.454-1.858c-1.44 0-3.274.244-5.499.732s-3.96.896-5.203 1.221l1.473-6.25c5.104-2.278 9.619-3.97 13.547-5.078s7.298-1.66 10.113-1.66c5.17 0 8.867 1.402 11.092 4.204s3.404 6.679 3.535 11.632h.584c7.136-5.734 13.297-9.985 18.486-12.755s11.092-4.155 17.708-4.155c6.226 0 11.09 1.81 14.594 5.426s5.255 8.359 5.255 14.225c0 1.173-.18 3.259-.537 6.257a64.01 64.01 0 0 1-1.709 8.896l-8.214 31.381c-.587 2.088-1.158 4.482-1.712 7.188s-.83 4.806-.83 6.305c0 3.715.813 6.24 2.443 7.577s4.298 2.003 8.012 2.003c1.237 0 3.013-.21 5.325-.635s4.087-.861 5.326-1.318zm19.351 13.379c-6.186 0-10.71-1.254-13.574-3.76s-4.297-6.104-4.297-10.791c0-1.496.098-2.912.293-4.248a103.82 103.82 0 0 1 .781-4.541L920.155 72.1h-17.469l2.057-8.887h17.828l6.812-28.613h17.563l-6.606 28.613h27.189l-2.043 8.887h-26.959l-12.605 53.808c-.586 2.476-1.074 4.868-1.465 7.178s-.586 4.282-.586 5.908c0 3.582.894 6.201 2.686 7.861s5.03 2.49 9.72 2.49c1.692 0 4.069-.21 7.13-.635s5.438-.959 7.131-1.611l-1.66 7.129c-4.558 1.758-8.854 3.271-12.891 4.541s-8.789 1.904-14.258 1.904z"/><path d="M980.925 161.552c-9.636 0-17.66-1.709-24.072-5.127s-9.619-7.893-9.619-13.428c0-2.603.943-5.044 2.832-7.324s4.199-3.418 6.934-3.418c2.604 0 4.703.604 6.299 1.807s2.848 2.622 3.76 4.248c.977 1.694 1.839 3.711 2.588 6.055l1.904 5.762c.977 1.108 2.327 2.134 4.053 3.076s4.215 1.416 7.471 1.416c7.031 0 12.354-1.762 15.967-5.287s5.42-8.288 5.42-14.294c0-4.435-1.693-7.973-5.078-10.616s-8.432-5.071-15.137-7.29c-2.409-.781-5.241-1.972-8.496-3.571s-5.859-3.309-7.812-5.137c-2.344-2.087-4.232-4.565-5.664-7.436s-2.148-6.262-2.148-10.176c0-8.35 3.727-15.573 11.182-21.672s16.617-9.149 27.49-9.149c2.539 0 5.273.131 8.203.391s6.152.977 9.668 2.148c3.06 1.042 5.664 2.588 7.812 4.639s3.223 4.704 3.223 7.959c0 2.67-.896 5.095-2.686 7.275s-4.15 3.271-7.08 3.271c-2.409 0-4.395-.521-5.957-1.562s-2.865-2.441-3.906-4.199a27.76 27.76 0 0 1-2.539-5.664 92.85 92.85 0 0 0-2.148-5.957c-1.237-.521-2.344-.879-3.32-1.074s-2.279-.293-3.906-.293c-6.381 0-11.215 1.713-14.502 5.141s-4.932 7.492-4.932 12.192c0 4.567 1.48 8.008 4.443 10.323s7.861 4.713 14.697 7.191c8.854 3.196 15.283 6.85 19.287 10.958s6.006 9.198 6.006 15.264c0 9.915-3.809 17.988-11.426 24.218s-17.223 9.34-28.811 9.34z"/><path fill="#a2c699" d="M111.876 180.3s-24.369 15.508-55.383 13.292-43.817-27.237-43.2-58.153C13.813 109.356 16.615 44.055 0 16.917c0 0 8.309 21.046 50.954 29.907s71.999 23.261 85.291 54.277 5.539 57.045-24.369 79.199z"/><path d="M155.739 87.798c-12.911-30.128-39.695-47.404-89.556-57.765C35.896 23.74 24.472 11.285 20.849 5.948c-.562-1.079-1.15-2.121-1.75-3.099A5.96 5.96 0 0 0 8.472 8.15c.153.387.74 1.769 2.073 3.828 12.844 25.428 11.557 80.143 10.937 106.486l-.132 5.901c-.758 37.976 17.46 61.982 48.735 64.217 2.153.154 4.353.231 6.535.231 18.282 0 33.729-5.339 43.039-9.528.245 11.82-.479 25.526-2.613 41.386l-.402 2.882a132.51 132.51 0 0 0 12.637-4.548c1.73-13.882 2.852-30.047 2.034-46.301 30.337-23.356 38.566-51.908 24.424-84.906zM76.62 176.893a80.03 80.03 0 0 1-5.686-.201c-14.435-1.031-38.522-9.17-37.666-52.089l.131-5.857c.489-20.765 1.273-54.107-3.306-81.807C40.229 47.77 50.229 55.397 59.826 62.307c11.719 8.438 29.66 26.257 48.575 63.232 4.417 8.632 8.842 21.711 10.558 40.84-6.979 3.57-23.036 10.514-42.339 10.514zm53.418-18.577c-1.755-13.571-5.159-26.745-11.023-38.207-19.999-39.093-39.438-58.271-52.223-67.477-6.289-4.528-12.759-9.379-19.312-15.323 4.835 1.648 10.235 3.14 16.278 4.396 45.598 9.476 69.829 24.664 81.025 50.789 11.068 25.826 6.402 46.95-14.745 65.822z"/></svg>